<svg id="Layer_1" data-name="Layer 1" xmlns="http://www.w3.org/2000/svg" viewBox="0 0 71.26 62.17"><defs><style>.cls-1,.cls-3{fill:#3fa9f5;}.cls-2{fill:none;}.cls-3{fill-rule:evenodd;}</style></defs><title>favicon</title><rect class="cls-1" x="41.19" y="21.16" width="20.92" height="0.6"/><line class="cls-2" x1="62.11" y1="21.46" x2="41.19" y2="21.46"/><rect class="cls-1" x="41.25" y="40.53" width="20.92" height="0.6"/><line class="cls-2" x1="62.17" y1="40.83" x2="41.25" y2="40.83"/><rect class="cls-1" y="5.98" width="62.17" height="0.6"/><line class="cls-2" x1="62.17" y1="6.28" y2="6.28"/><rect class="cls-1" y="13.39" width="62.17" height="0.6"/><line class="cls-2" x1="62.17" y1="13.69" y2="13.69"/><rect class="cls-1" y="48.3" width="62.17" height="0.6"/><line class="cls-2" x1="62.17" y1="48.6" y2="48.6"/><rect class="cls-1" y="55.72" width="62.17" height="0.6"/><line class="cls-2" x1="62.17" y1="56.02" y2="56.02"/><rect class="cls-1" x="5.5" width="0.6" height="62.17"/><line class="cls-2" x1="5.8" x2="5.8" y2="62.17"/><rect class="cls-1" x="13.27" width="0.6" height="62.17"/><line class="cls-2" x1="13.57" x2="13.57" y2="62.17"/><rect class="cls-1" x="47.83" y="40.89" width="0.6" height="21.28"/><polyline class="cls-3" points="48.12 62.17 48.12 49.21 48.12 40.89"/><rect class="cls-1" x="47.83" width="0.6" height="21.4"/><polyline class="cls-3" points="48.12 21.4 48.12 13.09 48.12 0"/><rect class="cls-1" x="55.6" y="40.89" width="0.6" height="21.28"/><line class="cls-2" x1="55.9" y1="62.17" x2="55.9" y2="40.89"/><rect class="cls-1" x="55.6" width="0.6" height="21.4"/><line class="cls-2" x1="55.9" y1="21.4" x2="55.9"/><path class="cls-3" d="M91.19,41.72a24.88,24.88,0,1,1,0-19.49H82.41a17,17,0,1,0-.17,19.49Z" transform="translate(-37.27 -0.83)"/><path class="cls-1" d="M68.3,57.14a25.17,25.17,0,1,1,23.16-35l.18.42H82.25l-.09-.13A16.68,16.68,0,1,0,54.68,41.31a16.68,16.68,0,0,0,23.19,4.28A16.35,16.35,0,0,0,82,41.54l.09-.12h9.56l-.18.42A25.15,25.15,0,0,1,68.3,57.14Zm0-49.74A24.57,24.57,0,1,0,90.73,42H82.39a17.38,17.38,0,0,1-4.18,4.07,17.28,17.28,0,1,1,4.35-24.16h8.17A24.57,24.57,0,0,0,68.3,7.4Z" transform="translate(-37.27 -0.83)"/><path class="cls-1" d="M83.42,31.75a1,1,0,0,0-1,.77.75.75,0,0,0,0,.21v.41a1.94,1.94,0,0,0,0,.24,1,1,0,0,0,.94.73,1.19,1.19,0,0,0,0-2.36Z" transform="translate(-37.27 -0.83)"/><path class="cls-1" d="M69.3,31.66c-.73,0-1,.62-1,1.26h0c0,.72.38,1.25,1,1.25s1-.45,1-1.26C70.3,32.28,70,31.66,69.3,31.66Z" transform="translate(-37.27 -0.83)"/><path class="cls-1" d="M98,31.58H98a1,1,0,0,0-1,.83h1.82A.81.81,0,0,0,98,31.58Z" transform="translate(-37.27 -0.83)"/><path class="cls-1" d="M103.69,27.37H62.2a4.84,4.84,0,0,0,0,9.68h41.49a4.84,4.84,0,1,0,0-9.68ZM64.73,34a4.12,4.12,0,0,0,1.35-.23l.23,1.07a4.66,4.66,0,0,1-1.77.29c-2.29,0-3.49-1.28-3.49-2.95,0-1.93,1.56-3.12,3.61-3.12a4.24,4.24,0,0,1,1.72.3l-.31,1.07a3.67,3.67,0,0,0-1.35-.25,1.92,1.92,0,1,0,0,3.82Zm4.52,1.13A2.25,2.25,0,0,1,66.77,33a2.3,2.3,0,0,1,2.58-2.27,2.22,2.22,0,0,1,2.44,2.18A2.31,2.31,0,0,1,69.25,35.15ZM79.82,35H78.43V32.8c0-.66-.26-1-.73-1a.73.73,0,0,0-.69.49,1,1,0,0,0-.06.35v2.42H75.56v-2.3c0-.61-.25-1-.71-1a.78.78,0,0,0-.71.51,1,1,0,0,0-.06.34v2.41H72.7V32.18c0-.55,0-1,0-1.39h1.21l0,.6h0a1.59,1.59,0,0,1,1.42-.71,1.34,1.34,0,0,1,1.29.78h0a1.89,1.89,0,0,1,.61-.55,1.75,1.75,0,0,1,.92-.23c.86,0,1.6.57,1.6,1.92Zm3.92.11a1.57,1.57,0,0,1-1.29-.51h0v2.14H81V32.25c0-.58,0-1.06,0-1.46h1.25l.06.63h0a2.07,2.07,0,0,1,3.64,1.43A2.16,2.16,0,0,1,83.74,35.15Zm6.36-.1L90,34.39h0a1.67,1.67,0,0,1-1.5.76c-.9,0-1.67-.52-1.67-1.88V30.79h1.44V33c0,.65.23,1,.77,1a.82.82,0,0,0,.78-.52.74.74,0,0,0,.05-.25V30.79H91.3v2.87c0,.59,0,1.05,0,1.39Zm5-3.23h-1v1.41c0,.52.11.79.58.79a1.68,1.68,0,0,0,.44,0v1a3.07,3.07,0,0,1-.95.13,1.57,1.57,0,0,1-1.09-.4,1.78,1.78,0,0,1-.38-1.28V31.82h-.61v-1h.61v-.93l1.39-.31v1.24h1Zm5,1.53H97c0,.51.67.78,1.35.78a4.31,4.31,0,0,0,1.34-.2l.2.92a4.67,4.67,0,0,1-1.73.3c-1.6,0-2.52-.87-2.52-2.19A2.25,2.25,0,0,1,98,30.69a2,2,0,0,1,2.13,2.16A2.07,2.07,0,0,1,100.1,33.35ZM103.9,32a1.84,1.84,0,0,0-.41,0,.91.91,0,0,0-1,.7,1.06,1.06,0,0,0,0,.25V35H101v-2.8c0-.7,0-1.09,0-1.45h1.23l0,.84h0a1.39,1.39,0,0,1,1.3-.95,1.53,1.53,0,0,1,.3,0Z" transform="translate(-37.27 -0.83)"/></svg>